<svg xmlns="http://www.w3.org/2000/svg" width="900" height="1320" viewBox="0 0 900 1320">
<defs>
 <filter id="noise"><feTurbulence type="fractalNoise" baseFrequency=".018" numOctaves="4" seed="124"/><feColorMatrix values="1 0 0 0 .15  0 1 0 0 .15  0 0 1 0 .15  0 0 0 .23 0"/></filter>
 <linearGradient id="bg" x1="0" y1="0" x2="1" y2="1"><stop stop-color="#e8e4db"/><stop offset=".48" stop-color="#849a97"/><stop offset="1" stop-color="#d5c8b7"/></linearGradient>
</defs>
<rect width="100%" height="100%" fill="url(#bg)"/>
<ellipse cx="488" cy="1042" rx="56" ry="80" fill="#6f7f82" opacity="0.30" transform="rotate(15 488 1042)"/><ellipse cx="665" cy="-16" rx="136" ry="77" fill="#a9a59a" opacity="0.54" transform="rotate(101 665 -16)"/><ellipse cx="-36" cy="1032" rx="176" ry="143" fill="#557c7b" opacity="0.28" transform="rotate(4 -36 1032)"/><ellipse cx="745" cy="567" rx="108" ry="71" fill="#557c7b" opacity="0.52" transform="rotate(99 745 567)"/><ellipse cx="649" cy="1021" rx="130" ry="137" fill="#b9c1bd" opacity="0.38" transform="rotate(43 649 1021)"/><ellipse cx="970" cy="1159" rx="83" ry="133" fill="#c5b6a3" opacity="0.59" transform="rotate(145 970 1159)"/><ellipse cx="145" cy="1162" rx="168" ry="58" fill="#6f7f82" opacity="0.53" transform="rotate(33 145 1162)"/><ellipse cx="297" cy="852" rx="186" ry="44" fill="#c5b6a3" opacity="0.46" transform="rotate(165 297 852)"/><ellipse cx="640" cy="1130" rx="173" ry="55" fill="#b9c1bd" opacity="0.41" transform="rotate(44 640 1130)"/><ellipse cx="46" cy="38" rx="115" ry="169" fill="#c5b6a3" opacity="0.53" transform="rotate(25 46 38)"/><ellipse cx="887" cy="85" rx="203" ry="158" fill="#d8d7cf" opacity="0.39" transform="rotate(164 887 85)"/><ellipse cx="742" cy="1320" rx="95" ry="91" fill="#e7e2d8" opacity="0.41" transform="rotate(5 742 1320)"/><ellipse cx="651" cy="886" rx="166" ry="74" fill="#e7e2d8" opacity="0.34" transform="rotate(121 651 886)"/><ellipse cx="33" cy="434" rx="155" ry="57" fill="#6f7f82" opacity="0.27" transform="rotate(28 33 434)"/><ellipse cx="332" cy="789" rx="218" ry="92" fill="#b9c1bd" opacity="0.19" transform="rotate(18 332 789)"/><ellipse cx="253" cy="1390" rx="83" ry="78" fill="#557c7b" opacity="0.27" transform="rotate(23 253 1390)"/><ellipse cx="-6" cy="760" rx="177" ry="155" fill="#d8d7cf" opacity="0.55" transform="rotate(0 -6 760)"/><ellipse cx="870" cy="649" rx="78" ry="53" fill="#6f7f82" opacity="0.36" transform="rotate(136 870 649)"/><ellipse cx="658" cy="369" rx="120" ry="146" fill="#c5b6a3" opacity="0.61" transform="rotate(59 658 369)"/><ellipse cx="-46" cy="802" rx="216" ry="168" fill="#e7e2d8" opacity="0.28" transform="rotate(173 -46 802)"/><ellipse cx="824" cy="964" rx="89" ry="165" fill="#e7e2d8" opacity="0.54" transform="rotate(162 824 964)"/><ellipse cx="81" cy="175" rx="170" ry="57" fill="#e7e2d8" opacity="0.32" transform="rotate(149 81 175)"/><ellipse cx="933" cy="212" rx="71" ry="168" fill="#c5b6a3" opacity="0.34" transform="rotate(3 933 212)"/><ellipse cx="261" cy="106" rx="140" ry="57" fill="#c5b6a3" opacity="0.20" transform="rotate(179 261 106)"/><ellipse cx="458" cy="1301" rx="186" ry="110" fill="#c5b6a3" opacity="0.24" transform="rotate(68 458 1301)"/><ellipse cx="478" cy="47" rx="168" ry="65" fill="#6f7f82" opacity="0.49" transform="rotate(59 478 47)"/><ellipse cx="106" cy="1260" rx="162" ry="51" fill="#c5b6a3" opacity="0.37" transform="rotate(99 106 1260)"/><ellipse cx="863" cy="1351" rx="207" ry="83" fill="#b9c1bd" opacity="0.56" transform="rotate(163 863 1351)"/><ellipse cx="103" cy="955" rx="115" ry="122" fill="#c5b6a3" opacity="0.26" transform="rotate(23 103 955)"/><ellipse cx="436" cy="1364" rx="118" ry="54" fill="#7d9996" opacity="0.23" transform="rotate(154 436 1364)"/><ellipse cx="950" cy="805" rx="88" ry="134" fill="#557c7b" opacity="0.57" transform="rotate(97 950 805)"/><ellipse cx="-56" cy="553" rx="67" ry="130" fill="#e7e2d8" opacity="0.22" transform="rotate(47 -56 553)"/><ellipse cx="155" cy="269" rx="177" ry="56" fill="#a9a59a" opacity="0.25" transform="rotate(135 155 269)"/><ellipse cx="-16" cy="554" rx="89" ry="123" fill="#b9c1bd" opacity="0.22" transform="rotate(77 -16 554)"/><ellipse cx="785" cy="669" rx="171" ry="132" fill="#e7e2d8" opacity="0.56" transform="rotate(159 785 669)"/><ellipse cx="850" cy="886" rx="92" ry="100" fill="#b9c1bd" opacity="0.28" transform="rotate(149 850 886)"/><ellipse cx="906" cy="421" rx="93" ry="40" fill="#557c7b" opacity="0.61" transform="rotate(26 906 421)"/><ellipse cx="812" cy="1279" rx="57" ry="123" fill="#b9c1bd" opacity="0.48" transform="rotate(98 812 1279)"/><ellipse cx="114" cy="1216" rx="60" ry="107" fill="#b9c1bd" opacity="0.45" transform="rotate(46 114 1216)"/><ellipse cx="475" cy="1126" rx="205" ry="41" fill="#6f7f82" opacity="0.24" transform="rotate(150 475 1126)"/><ellipse cx="557" cy="1220" rx="94" ry="88" fill="#b9c1bd" opacity="0.30" transform="rotate(77 557 1220)"/><ellipse cx="900" cy="222" rx="172" ry="164" fill="#d8d7cf" opacity="0.46" transform="rotate(82 900 222)"/><ellipse cx="753" cy="1177" rx="195" ry="79" fill="#7d9996" opacity="0.56" transform="rotate(171 753 1177)"/><ellipse cx="-39" cy="226" rx="83" ry="143" fill="#d8d7cf" opacity="0.24" transform="rotate(57 -39 226)"/><ellipse cx="-31" cy="-80" rx="214" ry="131" fill="#557c7b" opacity="0.40" transform="rotate(73 -31 -80)"/><ellipse cx="877" cy="617" rx="56" ry="101" fill="#c5b6a3" opacity="0.50" transform="rotate(48 877 617)"/><ellipse cx="59" cy="1115" rx="94" ry="113" fill="#6f7f82" opacity="0.23" transform="rotate(104 59 1115)"/><ellipse cx="861" cy="1087" rx="110" ry="103" fill="#c5b6a3" opacity="0.58" transform="rotate(128 861 1087)"/><ellipse cx="116" cy="1202" rx="173" ry="64" fill="#c5b6a3" opacity="0.57" transform="rotate(172 116 1202)"/><ellipse cx="960" cy="248" rx="80" ry="164" fill="#c5b6a3" opacity="0.22" transform="rotate(7 960 248)"/><ellipse cx="15" cy="-63" rx="207" ry="154" fill="#a9a59a" opacity="0.21" transform="rotate(115 15 -63)"/><ellipse cx="826" cy="691" rx="139" ry="76" fill="#7d9996" opacity="0.36" transform="rotate(111 826 691)"/><ellipse cx="879" cy="187" rx="166" ry="64" fill="#d8d7cf" opacity="0.21" transform="rotate(42 879 187)"/><ellipse cx="890" cy="1323" rx="140" ry="158" fill="#557c7b" opacity="0.51" transform="rotate(173 890 1323)"/><ellipse cx="796" cy="497" rx="112" ry="97" fill="#c5b6a3" opacity="0.59" transform="rotate(67 796 497)"/>
<rect width="100%" height="100%" filter="url(#noise)" opacity=".7"/>
<path d="M-100 175 C 180 114, 360 236, 560 155 S 790 266, 1000 193" fill="none" stroke="#6f7776" stroke-opacity="0.42" stroke-width="5.1"/><path d="M-100 500 C 180 444, 360 556, 560 459 S 790 427, 1000 524" fill="none" stroke="#f5f1e9" stroke-opacity="0.39" stroke-width="2.4"/><path d="M-100 1388 C 180 1272, 360 1504, 560 1360 S 790 1375, 1000 1391" fill="none" stroke="#6f7776" stroke-opacity="0.37" stroke-width="1.6"/><path d="M-100 1236 C 180 1201, 360 1271, 560 1152 S 790 1296, 1000 1222" fill="none" stroke="#f5f1e9" stroke-opacity="0.43" stroke-width="2.8"/><path d="M-100 -27 C 180 -84, 360 30, 560 -48 S 790 -101, 1000 -73" fill="none" stroke="#ffffff" stroke-opacity="0.46" stroke-width="2.5"/><path d="M-100 -44 C 180 -118, 360 30, 560 -91 S 790 -53, 1000 32" fill="none" stroke="#ffffff" stroke-opacity="0.42" stroke-width="5.3"/><path d="M-100 1181 C 180 1089, 360 1273, 560 1097 S 790 1212, 1000 1243" fill="none" stroke="#ffffff" stroke-opacity="0.27" stroke-width="4.1"/><path d="M-100 628 C 180 559, 360 697, 560 597 S 790 615, 1000 612" fill="none" stroke="#b69072" stroke-opacity="0.22" stroke-width="5.2"/><path d="M-100 1390 C 180 1339, 360 1441, 560 1328 S 790 1483, 1000 1446" fill="none" stroke="#b69072" stroke-opacity="0.35" stroke-width="2.0"/><path d="M-100 950 C 180 899, 360 1001, 560 902 S 790 914, 1000 920" fill="none" stroke="#b69072" stroke-opacity="0.56" stroke-width="1.6"/><path d="M-100 710 C 180 680, 360 740, 560 671 S 790 635, 1000 752" fill="none" stroke="#6f7776" stroke-opacity="0.25" stroke-width="4.5"/><path d="M-100 1114 C 180 1047, 360 1181, 560 1015 S 790 1117, 1000 1109" fill="none" stroke="#b69072" stroke-opacity="0.22" stroke-width="1.6"/><path d="M-100 513 C 180 400, 360 626, 560 425 S 790 482, 1000 557" fill="none" stroke="#b69072" stroke-opacity="0.55" stroke-width="4.7"/><path d="M-100 1078 C 180 969, 360 1187, 560 994 S 790 1173, 1000 1085" fill="none" stroke="#f5f1e9" stroke-opacity="0.38" stroke-width="3.5"/><path d="M-100 149 C 180 70, 360 228, 560 78 S 790 85, 1000 84" fill="none" stroke="#b69072" stroke-opacity="0.19" stroke-width="5.3"/><path d="M-100 692 C 180 634, 360 750, 560 667 S 790 599, 1000 640" fill="none" stroke="#ffffff" stroke-opacity="0.19" stroke-width="3.8"/><path d="M-100 571 C 180 479, 360 663, 560 513 S 790 627, 1000 649" fill="none" stroke="#b69072" stroke-opacity="0.52" stroke-width="4.1"/><path d="M-100 -79 C 180 -171, 360 13, 560 -176 S 790 -148, 1000 -124" fill="none" stroke="#b69072" stroke-opacity="0.38" stroke-width="2.2"/><path d="M-100 498 C 180 457, 360 539, 560 472 S 790 457, 1000 484" fill="none" stroke="#ffffff" stroke-opacity="0.22" stroke-width="2.4"/><path d="M-100 1351 C 180 1276, 360 1426, 560 1277 S 790 1355, 1000 1312" fill="none" stroke="#b69072" stroke-opacity="0.58" stroke-width="2.3"/><path d="M-100 1045 C 180 1013, 360 1077, 560 993 S 790 956, 1000 1030" fill="none" stroke="#ffffff" stroke-opacity="0.26" stroke-width="2.1"/><path d="M-100 1026 C 180 914, 360 1138, 560 966 S 790 1117, 1000 1076" fill="none" stroke="#ffffff" stroke-opacity="0.56" stroke-width="3.9"/>
<rect x="8" y="8" width="884" height="1304" fill="none" stroke="#ffffff" stroke-opacity=".22"/>
</svg>